<?xml version="1.0" standalone="no"?>
<!DOCTYPE svg PUBLIC "-//W3C//DTD SVG 20010904//EN"
 "http://www.w3.org/TR/2001/REC-SVG-20010904/DTD/svg10.dtd">
<svg version="1.0" xmlns="http://www.w3.org/2000/svg"
 width="516.000000pt" height="532.000000pt" viewBox="0 0 516.000000 532.000000"
 preserveAspectRatio="xMidYMid meet">

<g transform="translate(0.000000,532.000000) scale(0.100000,-0.100000)"
fill="#000000" stroke="none">
<path d="M3784 5267 c-150 -127 -259 -219 -732 -617 -277 -232 -500 -426 -495
-430 4 -4 52 -24 105 -45 l97 -38 173 145 c95 80 207 174 248 208 144 122 555
465 573 479 16 13 17 -102 17 -2378 l0 -2391 -420 0 -420 0 -2 1792 -3 1792
-645 258 c-355 142 -650 256 -657 254 -9 -4 -770 -640 -1153 -964 -36 -30
-156 -132 -267 -225 l-203 -171 0 -1468 0 -1468 105 0 105 0 0 1423 0 1424 81
67 c45 37 262 220 483 405 220 186 482 405 581 488 l180 151 3 -1979 2 -1979
105 0 105 0 0 2016 c0 1916 1 2016 18 2010 9 -4 227 -91 484 -194 l468 -187 0
-1822 0 -1823 630 0 630 0 0 2526 c0 2040 2 2525 13 2522 7 -2 225 -88 485
-192 l472 -190 0 -2333 0 -2333 105 0 105 0 -2 2403 -3 2402 -640 257 c-352
141 -647 257 -655 257 -8 0 -42 -24 -76 -52z"/>
</g>
</svg>
