<svg width="44" height="44" viewBox="0 0 44 44" fill="none" xmlns="http://www.w3.org/2000/svg">
<path d="M17.8333 34.5C16.4526 34.5 15.3333 35.6193 15.3333 37C15.3333 38.3807 16.4526 39.5 17.8333 39.5V34.5ZM37 37V39.5C38.3807 39.5 39.5 38.3807 39.5 37H37ZM37 7H39.5C39.5 5.61929 38.3807 4.5 37 4.5V7ZM7 7V4.5C5.61929 4.5 4.5 5.61929 4.5 7L7 7ZM7 37H4.5C4.5 38.3807 5.61929 39.5 7 39.5L7 37ZM11.1667 39.5C12.5474 39.5 13.6667 38.3807 13.6667 37C13.6667 35.6193 12.5474 34.5 11.1667 34.5V39.5ZM7 24H16V19H7V24ZM14 14V30H19V14H14ZM24 7V15H29V7H24ZM24 21V28H29V21H24ZM37 26H25V31H37V26ZM17.8333 39.5H37V34.5H17.8333V39.5ZM39.5 37V7H34.5V37H39.5ZM37 4.5H7V9.5H37V4.5ZM4.5 7V37H9.5V7H4.5ZM7 39.5H11.1667V34.5H7V39.5Z" fill="black"/>
</svg>
